<svg width="665" height="158" viewBox="0 0 665 158" fill="none" xmlns="http://www.w3.org/2000/svg">
<g clip-path="url(#clip0_3116_3)">
<path d="M196.844 54.1548H206.811V61.3892C210.419 55.7747 215.922 53.0156 222.466 53.0156C233.385 53.0156 239.641 60.1539 239.641 72.522V101.734H229.202V74.3269C229.202 66.8114 225.594 62.7207 218.859 62.7207C211.171 62.7207 207.091 68.4314 207.091 79.2756V101.734H196.844V54.1548Z" fill="black"/>
<path d="M268.663 53.0074C281.95 53.0074 288.494 59.1915 288.494 71.5596V101.725H278.247V95.1566C275.023 100.009 269.703 102.865 263.16 102.865C253.576 102.865 247.121 96.6805 247.121 87.9222C247.121 79.7409 252.912 74.0302 262.304 73.1722L275.495 71.8407C277.487 71.6483 278.247 70.9826 278.247 69.6511V68.6007C278.247 64.6062 274.831 62.2243 268.855 62.2243C262.311 62.2243 257.944 64.9835 256.808 69.6511L248.552 64.4213C251.016 56.9945 258.04 53 268.671 53L268.663 53.0074ZM264.583 81.457C260.216 81.9304 257.744 84.2162 257.744 87.6411C257.744 91.4432 260.688 93.8251 265.528 93.8251C272.743 93.8251 278.247 88.7802 278.247 82.5V79.7409L264.583 81.4496V81.457Z" fill="black"/>
<path d="M354.051 53.0078C365.434 53.0078 372.177 60.05 372.177 73.5646V101.726H361.834V74.3192C361.834 66.7074 358.418 62.7129 351.963 62.7129C343.708 62.7129 339.724 68.4236 339.724 79.2679V101.726H329.476V74.3192C329.476 66.7074 325.965 62.7129 319.509 62.7129C311.342 62.7129 307.358 68.4236 307.358 79.2679V101.726H297.111V54.1544H307.078V61.5738C310.022 56.0555 314.95 53.0078 321.981 53.0078C329.012 53.0078 334.412 56.0555 337.164 62.1434C340.867 56.1516 346.371 53.0078 354.058 53.0078H354.051Z" fill="black"/>
<path d="M402.516 53.0078C417.219 53.0078 425.571 63.4749 425.571 78.1287V81.0802H389.126V81.1764C390.077 89.2689 396.525 93.2634 403.364 93.2634C409.628 93.2634 414.276 90.5042 417.595 87.0793L422.435 95.3568C418.547 99.1663 412.372 102.873 403.453 102.873C388.27 102.873 378.686 92.79 378.686 78.1287C378.686 63.4675 387.893 53.0078 402.508 53.0078H402.516ZM402.324 62.1434C394.828 62.1434 390.461 66.3302 389.229 73.2761H414.379C413.715 66.7074 409.731 62.1434 402.324 62.1434Z" fill="black"/>
<path d="M449.561 53.0078C458.104 53.0078 464.272 56.0555 468.352 61.7661L461.424 68.3274C458.864 64.4291 454.121 62.4319 448.801 62.4319C444.058 62.4319 441.114 64.148 441.114 67.1883C441.114 70.4208 444.25 71.1827 452.313 73.0838C461.808 75.3696 468.448 78.1287 468.448 87.7377C468.448 97.3466 461.424 102.865 449.185 102.865C439.506 102.865 431.818 99.3439 428.115 93.256L435.138 86.5023C437.89 90.7853 442.826 93.5445 449.938 93.5445C454.969 93.5445 458.009 91.8357 458.009 88.3147C458.009 84.7936 455.065 84.0317 447.474 82.3229C439.314 80.518 430.675 77.6627 430.675 67.5729C430.675 58.5335 437.89 53.0152 449.554 53.0152L449.561 53.0078Z" fill="black"/>
<path d="M474.217 54.1544H484.464V60.908C488.256 55.767 493.952 53.0078 500.791 53.0078C513.886 53.0078 522.997 63.1864 522.997 77.9364C522.997 92.6864 513.886 102.865 500.887 102.865C494.151 102.865 488.552 100.106 484.472 94.876V124.828H474.224V54.1544H474.217ZM512.462 77.9438C512.462 68.9044 506.767 62.8165 498.231 62.8165C489.695 62.8165 484 68.8082 484 77.9438C484 87.0793 489.695 93.0711 498.231 93.0711C506.767 93.0711 512.462 86.9832 512.462 77.9438Z" fill="black"/>
<path d="M548.51 53.0074C561.797 53.0074 568.341 59.1915 568.341 71.5596V101.725H558.093V95.1566C554.869 100.009 549.55 102.865 543.006 102.865C533.423 102.865 526.967 96.6805 526.967 87.9222C526.967 79.7409 532.759 74.0302 542.15 73.1722L555.341 71.8407C557.333 71.6483 558.093 70.9826 558.093 69.6511V68.6007C558.093 64.6062 554.677 62.2243 548.702 62.2243C542.158 62.2243 537.79 64.9835 536.654 69.6511L528.399 64.4213C530.863 56.9945 537.886 53 548.517 53L548.51 53.0074ZM544.43 81.457C540.062 81.9304 537.591 84.2162 537.591 87.6411C537.591 91.4432 540.535 93.8251 545.374 93.8251C552.589 93.8251 558.093 88.7802 558.093 82.5V79.7409L544.43 81.4496V81.457Z" fill="black"/>
<path d="M598.788 53.0078C605.804 53.0078 611.787 55.3897 616.339 59.9538L610.171 68.0389C606.564 64.7102 602.771 62.994 598.5 62.994C589.957 62.994 584.173 69.0819 584.173 77.9364C584.173 86.7908 590.06 92.8787 598.404 92.8787C602.867 92.8787 607.043 91.0738 610.651 87.6489L616.538 95.8302C611.979 100.395 605.619 102.873 598.411 102.873C583.708 102.873 573.645 92.79 573.645 78.0399C573.645 63.2899 583.988 53.0152 598.795 53.0152L598.788 53.0078Z" fill="black"/>
<path d="M641.944 53.0078C656.648 53.0078 664.999 63.4749 664.999 78.1287V81.0802H628.554V81.1764C629.506 89.2689 635.954 93.2634 642.793 93.2634C649.056 93.2634 653.704 90.5042 657.024 87.0793L661.863 95.3568C657.976 99.1663 651.801 102.873 642.881 102.873C627.698 102.873 618.115 92.79 618.115 78.1287C618.115 63.4675 627.322 53.0078 641.937 53.0078H641.944ZM641.752 62.1434C634.257 62.1434 629.889 66.3302 628.657 73.2761H653.807C653.143 66.7074 649.159 62.1434 641.752 62.1434Z" fill="black"/>
<path d="M79 158C122.63 158 158 122.63 158 79C158 35.3695 122.63 0 79 0C35.3695 0 0 35.3695 0 79C0 122.63 35.3695 158 79 158Z" fill="#1C32FF"/>
<path d="M120.148 122.806V110.969H80.4883V122.806H120.148Z" fill="white"/>
<path d="M90.2716 102.534H80.5605L52.6677 63.194V102.534H40.8301V43.4883H52.3842L78.434 80.8086V43.4883H90.2716V102.534Z" fill="white"/>
</g>
<defs>
<clipPath id="clip0_3116_3">
<rect width="665" height="158" fill="white"/>
</clipPath>
</defs>
</svg>
