<svg xmlns="http://www.w3.org/2000/svg" viewBox="0 0 153.6 180.43">
    <circle fill="currentColor" cx="76.84" cy="47.13" r="47.13"/>
    <path fill="currentColor" d="M144.03,124.6c-12.94-22.25-41.26-23.06-42.88-23.06-5.23,0-10.43,5.02-24.36,5.03-13.93-.01-19.12-5.03-24.36-5.03-1.62,0-29.94.81-42.88,23.06-12.94,22.25-10.52,44.5-5.66,49.76,1.35,1.46,5.35,5.71,11.53,5.71,16.03,0,44.12.36,61.33.36.01,0,.02,0,.03,0s.02,0,.03,0c17.21,0,45.31-.36,61.33-.36,6.18,0,10.19-4.25,11.53-5.71,4.85-5.26,7.28-27.51-5.66-49.76Z"/>
</svg>