<svg width="150" height="150" viewBox="0 0 150 150" fill="none" xmlns="http://www.w3.org/2000/svg">
<g clip-path="url(#clip0_2314_434)">
<path d="M149.5 0.300446L149.5 150L0.100006 150L149.5 0.300446Z" fill="#F1E271"/>
<path d="M0.100098 150V0.300781L74.8001 75.2006L0.100098 150Z" fill="#248BCC"/>
<path d="M149.6 0.300781L74.8001 75.2006L0.100098 0.300781H149.6Z" fill="white"/>
<path d="M76 118.192L81.6596 114.806C82.4787 116.131 83.9681 118.78 86.7979 118.339C89.6277 117.897 89.9255 116.131 89.9255 114.806V90.5205H96.8511C96.9007 98.6157 97 113.902 97 115.027C97 118.044 95.1383 124.521 86.8723 124.521C79.5745 124.521 77.0426 120.399 76 118.192Z" fill="black"/>
<path d="M106.634 114.356L101 117.553C101.805 118.91 103.634 121.683 106.854 123.149C110.366 124.747 115.854 125.111 119.659 123.367C123.027 121.823 125 118.716 125 115.3C125 111.304 124.049 107.888 117.244 104.909C111.756 102.506 109.854 101.857 109.854 99.4587C109.854 98.732 110.293 96.4793 113.439 96.4793C115.927 96.4793 117.171 98.4414 117.61 99.4587L123.024 95.9706C121.854 94.0813 119.439 90.5205 113.439 90.5205C107.439 90.5205 103.049 94.0813 103.049 99.4587C103.049 104.836 106.505 108.058 112.268 110.214C117.902 112.321 118.122 113.949 118.122 114.937C118.122 116.027 117.39 118.498 113.512 118.498C109.488 118.498 107.39 115.761 106.634 114.356Z" fill="black"/>
</g>
<defs>
<clipPath id="clip0_2314_434">
<rect width="150" height="150" fill="white"/>
</clipPath>
</defs>
</svg>
