<svg width="150" height="150" viewBox="0 0 150 150" fill="none" xmlns="http://www.w3.org/2000/svg">
<g clip-path="url(#clip0_2314_418)">
<path d="M149.5 0.300446L149.5 150L0.100006 150L149.5 0.300446Z" fill="#F1E271"/>
<path d="M0.100098 150V0.300781L74.8001 75.2006L0.100098 150Z" fill="#248BCC"/>
<path d="M149.6 0.300781L74.8001 75.2006L0.100098 0.300781H149.6Z" fill="white"/>
<path d="M75.2002 128.771L82.8002 124.165C83.9002 125.968 85.9002 129.572 89.7002 128.972C93.5002 128.371 93.9002 125.968 93.9002 124.165V91.1211H103.2C103.267 102.136 103.4 122.935 103.4 124.466C103.4 128.571 100.9 137.383 89.8002 137.383C80.0002 137.383 76.6002 131.775 75.2002 128.771Z" fill="black"/>
<path d="M116.1 123.364L108.4 127.77C109.5 129.639 112 133.461 116.4 135.48C121.2 137.683 128.7 138.184 133.9 135.781C138.503 133.654 141.2 129.372 141.2 124.666C141.2 119.159 139.9 114.452 130.6 110.347C123.1 107.036 120.5 106.141 120.5 102.837C120.5 101.836 121.1 98.7315 125.4 98.7315C128.8 98.7315 130.5 101.435 131.1 102.837L138.5 98.0305C136.9 95.4271 133.6 90.5205 125.4 90.5205C117.2 90.5205 111.2 95.4271 111.2 102.837C111.2 110.247 115.923 114.686 123.8 117.657C131.5 120.561 131.8 122.803 131.8 124.165C131.8 125.667 130.8 129.072 125.5 129.072C120 129.072 117.133 125.3 116.1 123.364Z" fill="black"/>
</g>
<defs>
<clipPath id="clip0_2314_418">
<rect width="150" height="150" fill="white"/>
</clipPath>
</defs>
</svg>
