<svg width="150" height="192" viewBox="0 0 150 192" fill="none" xmlns="http://www.w3.org/2000/svg">
<g clip-path="url(#clip0_2314_468)">
<path d="M149.5 0.300446L149.5 150L0.100006 150L149.5 0.300446Z" fill="#F1E271"/>
<path d="M0.100098 150V0.300781L74.8001 75.2006L0.100098 150Z" fill="#248BCC"/>
<path d="M149.6 0.300781L74.8001 75.2006L0.100098 0.300781H149.6Z" fill="white"/>
<path d="M75.2002 128.771L82.8002 124.165C83.9002 125.968 85.9002 129.572 89.7002 128.972C93.5002 128.371 93.9002 125.968 93.9002 124.165V91.1211H103.2C103.267 102.136 103.4 122.935 103.4 124.466C103.4 128.571 100.9 137.383 89.8002 137.383C80.0002 137.383 76.6002 131.775 75.2002 128.771Z" fill="black"/>
<path d="M116.1 123.365L108.4 127.771C109.5 129.64 112 133.462 116.4 135.481C121.2 137.684 128.7 138.185 133.9 135.782C138.503 133.655 141.2 129.373 141.2 124.667C141.2 119.16 139.9 114.453 130.6 110.348C123.1 107.037 120.5 106.142 120.5 102.838C120.5 101.837 121.1 98.7324 125.4 98.7324C128.8 98.7324 130.5 101.436 131.1 102.838L138.5 98.0315C136.9 95.428 133.6 90.5215 125.4 90.5215C117.2 90.5215 111.2 95.428 111.2 102.838C111.2 110.248 115.923 114.687 123.8 117.658C131.5 120.562 131.8 122.804 131.8 124.166C131.8 125.668 130.8 129.073 125.5 129.073C120 129.073 117.133 125.301 116.1 123.365Z" fill="black"/>
</g>
<path d="M2.368 191V186.392L16.012 170.408H2.476V165.8H22.384V170.408L8.74 186.392H22.276V191H2.368ZM32.2061 191.432C30.7661 191.432 29.5421 191.144 28.5341 190.568C27.5501 189.992 26.7941 189.104 26.2661 187.904C25.7381 186.68 25.4741 185.108 25.4741 183.188V173H30.2261V182.216C30.2261 183.416 30.3581 184.364 30.6221 185.06C30.9101 185.732 31.3061 186.224 31.8101 186.536C32.3381 186.824 32.9261 186.968 33.5741 186.968C34.8221 186.992 35.7701 186.62 36.4181 185.852C37.0661 185.06 37.3901 183.92 37.3901 182.432V173H42.1421V191H37.6781L37.4981 188.552C36.8981 189.464 36.1421 190.172 35.2301 190.676C34.3421 191.18 33.3341 191.432 32.2061 191.432ZM46.259 191V173H51.011V176.312C51.755 175.184 52.691 174.344 53.819 173.792C54.971 173.216 56.159 172.928 57.383 172.928V177.536C56.279 177.536 55.235 177.668 54.251 177.932C53.291 178.196 52.511 178.628 51.911 179.228C51.311 179.828 51.011 180.596 51.011 181.532V191H46.259ZM60.1877 191V173H64.9397V191H60.1877ZM62.5637 170.084C61.8437 170.084 61.2077 169.82 60.6557 169.292C60.1037 168.74 59.8277 168.092 59.8277 167.348C59.8277 166.604 60.1037 165.968 60.6557 165.44C61.2077 164.888 61.8437 164.612 62.5637 164.612C63.3077 164.612 63.9437 164.888 64.4717 165.44C65.0237 165.968 65.2997 166.604 65.2997 167.348C65.2997 168.092 65.0237 168.74 64.4717 169.292C63.9437 169.82 63.3077 170.084 62.5637 170.084ZM77.9975 191.432C76.1255 191.432 74.4575 191.036 72.9935 190.244C71.5295 189.428 70.3895 188.312 69.5735 186.896C68.7575 185.456 68.3495 183.824 68.3495 182C68.3495 180.152 68.7575 178.52 69.5735 177.104C70.3895 175.688 71.5175 174.584 72.9575 173.792C74.3975 172.976 76.0535 172.568 77.9255 172.568C79.7255 172.568 81.3695 173.012 82.8575 173.9C84.3455 174.788 85.4255 176.072 86.0975 177.752L81.6335 179.336C81.2975 178.64 80.7695 178.088 80.0495 177.68C79.3535 177.248 78.5735 177.032 77.7095 177.032C76.8215 177.032 76.0415 177.248 75.3695 177.68C74.6975 178.088 74.1695 178.664 73.7855 179.408C73.4015 180.152 73.2095 181.016 73.2095 182C73.2095 182.984 73.4015 183.848 73.7855 184.592C74.1695 185.312 74.7095 185.888 75.4055 186.32C76.1015 186.752 76.8935 186.968 77.7815 186.968C78.6455 186.968 79.4255 186.74 80.1215 186.284C80.8415 185.828 81.3695 185.228 81.7055 184.484L86.2055 186.068C85.5095 187.772 84.4175 189.092 82.9295 190.028C81.4655 190.964 79.8215 191.432 77.9975 191.432ZM89.0099 191V165.8H93.7619V175.304C94.3619 174.416 95.1059 173.744 95.9939 173.288C96.8819 172.808 97.8779 172.568 98.9819 172.568C100.422 172.568 101.634 172.856 102.618 173.432C103.626 174.008 104.394 174.908 104.922 176.132C105.45 177.332 105.714 178.892 105.714 180.812V191H100.962V181.784C100.962 180.56 100.818 179.612 100.53 178.94C100.242 178.268 99.8459 177.788 99.3419 177.5C98.8379 177.188 98.2499 177.032 97.5779 177.032C96.3539 177.008 95.4059 177.38 94.7339 178.148C94.0859 178.916 93.7619 180.056 93.7619 181.568V191H89.0099ZM115.769 191.504C114.545 191.504 113.453 191.312 112.493 190.928C111.557 190.52 110.753 190.004 110.081 189.38C109.433 188.756 108.917 188.084 108.533 187.364C108.149 186.644 107.885 185.948 107.741 185.276L111.917 183.692C112.301 184.748 112.805 185.564 113.429 186.14C114.077 186.716 114.881 187.004 115.841 187.004C116.561 187.004 117.245 186.836 117.893 186.5C118.541 186.164 119.057 185.624 119.441 184.88C119.849 184.136 120.053 183.176 120.053 182V165.8H124.949V183.44C124.949 184.688 124.721 185.816 124.265 186.824C123.809 187.808 123.161 188.648 122.321 189.344C121.505 190.04 120.533 190.58 119.405 190.964C118.301 191.324 117.089 191.504 115.769 191.504ZM138.512 191.432C137.24 191.432 136.052 191.276 134.948 190.964C133.844 190.652 132.86 190.22 131.996 189.668C131.132 189.092 130.412 188.456 129.836 187.76C129.284 187.064 128.924 186.332 128.756 185.564L133.58 184.124C133.892 184.94 134.444 185.648 135.236 186.248C136.028 186.824 137.024 187.124 138.224 187.148C139.496 187.172 140.528 186.896 141.32 186.32C142.136 185.744 142.544 185 142.544 184.088C142.544 183.296 142.22 182.636 141.572 182.108C140.948 181.556 140.084 181.136 138.98 180.848L135.704 179.984C134.48 179.672 133.4 179.204 132.464 178.58C131.528 177.932 130.796 177.14 130.268 176.204C129.74 175.268 129.476 174.176 129.476 172.928C129.476 170.552 130.256 168.704 131.816 167.384C133.4 166.04 135.632 165.368 138.512 165.368C140.12 165.368 141.524 165.608 142.724 166.088C143.948 166.544 144.968 167.204 145.784 168.068C146.6 168.932 147.224 169.952 147.656 171.128L142.868 172.604C142.58 171.788 142.052 171.092 141.284 170.516C140.516 169.94 139.544 169.652 138.368 169.652C137.168 169.652 136.22 169.928 135.524 170.48C134.852 171.032 134.516 171.812 134.516 172.82C134.516 173.612 134.78 174.236 135.308 174.692C135.86 175.148 136.604 175.496 137.54 175.736L140.852 176.564C143.012 177.092 144.692 178.04 145.892 179.408C147.092 180.776 147.692 182.3 147.692 183.98C147.692 185.468 147.332 186.776 146.612 187.904C145.892 189.008 144.848 189.872 143.48 190.496C142.112 191.12 140.456 191.432 138.512 191.432Z" fill="black"/>
<defs>
<clipPath id="clip0_2314_468">
<rect width="150" height="150" fill="white"/>
</clipPath>
</defs>
</svg>
